<svg xmlns="http://www.w3.org/2000/svg" width="316.7" height="32.6" viewBox="0 0 316.7 32.6">
  <g id="logoereth" transform="translate(-0.5 -1.2)">
    <path id="Path_2928" data-name="Path 2928" d="M10.6,1.6H32.1V8.2H10.4a2.872,2.872,0,0,0-3.1,2.5v.5A3.007,3.007,0,0,0,9,13.7a3.6,3.6,0,0,0,1.1.2H21q4.2,0,5.7.9a9.122,9.122,0,0,1,5.1,5.1,12.408,12.408,0,0,1,.8,4.1q0,4.8-4.5,8.1A9.654,9.654,0,0,1,25,33.4a21.692,21.692,0,0,1-4.3.3H.5V27.1H22.3a3.351,3.351,0,0,0,3.5-2.7v-.6a3.09,3.09,0,0,0-1.9-2.9,3.867,3.867,0,0,0-1.7-.4H10a9.655,9.655,0,0,1-8-4.2A9.158,9.158,0,0,1,.6,11.6v-.9q0-4.95,4.8-7.8A9.122,9.122,0,0,1,10.6,1.6Z" fill="#6f7176"/>
    <path id="Path_2929" data-name="Path 2929" d="M51.6,33.4a15.856,15.856,0,0,1-12.8-6.3,15.443,15.443,0,0,1-1.4-2.2A17,17,0,0,1,36.2,22a23.473,23.473,0,0,1-.7-6V1.6h6.4V16.7q0,7.65,6.9,10.2a9.723,9.723,0,0,0,2.7.5,11.069,11.069,0,0,0,2.8-.5q6.9-2.55,6.9-10.2V1.6h6.4V16a19.708,19.708,0,0,1-.7,6,17,17,0,0,1-1.2,2.9,12.651,12.651,0,0,1-1.4,2.2A15.671,15.671,0,0,1,51.6,33.4Z" fill="#6f7176"/>
    <path id="Path_2930" data-name="Path 2930" d="M70.5,1.6H91a11.147,11.147,0,0,1,8.5,3.3,9.719,9.719,0,0,1,1.9,2.5,10.572,10.572,0,0,1,1.2,4.7V13a10.148,10.148,0,0,1-3,6.8,12.156,12.156,0,0,1-3.5,2.4c2.7,2.9,4,6.6,4,11.4H93.7V33a9.678,9.678,0,0,0-4.2-8.3A10.917,10.917,0,0,0,83.2,23H70.5V16.8H91.4A4.491,4.491,0,0,0,96,13.4c.1-.5.1-.8.2-1.2a4.4,4.4,0,0,0-1.6-3.4,4.771,4.771,0,0,0-2.9-1.1c0-.1-.3-.1-.9-.1H70.5Z" fill="#6f7176"/>
    <path id="Path_2931" data-name="Path 2931" d="M103,1.2h6.2l10.1,19.7L129.5,1.2h6.1L119.3,33.8Z" fill="#6f7176"/>
    <path id="Path_2932" data-name="Path 2932" d="M154,1.6h14V7.8H153.1A10.358,10.358,0,0,0,147,9.3c-1.9,1-3.3,2.9-4.3,5.7a12.891,12.891,0,0,0-.3,2.5,10.324,10.324,0,0,0,2.7,6.8,11.685,11.685,0,0,0,3.3,2.3,11.7,11.7,0,0,0,4.7.8h15v6.2H153.8c-3.6,0-6.3-.4-8.1-1.3a15.7,15.7,0,0,1-8.4-8.4,15.933,15.933,0,0,1-1.2-6.2,15.956,15.956,0,0,1,5.6-12.2,15.338,15.338,0,0,1,6.7-3.3C149.3,1.7,151.2,1.6,154,1.6Zm-2.7,12.8H168v6.1H151.3Z" fill="#6f7176"/>
    <path id="Path_2933" data-name="Path 2933" d="M183.8,33.4V28.2a21.408,21.408,0,0,1-7.1-3.5,14.809,14.809,0,0,1-3.4-3.9,16.313,16.313,0,0,1-1.7-3.8,19.708,19.708,0,0,1-.7-6V1.6h6.4v9.6c0,2.8.5,5,1.6,6.5A7.633,7.633,0,0,0,181,20a9.268,9.268,0,0,0,5.9,2.1,9.471,9.471,0,0,0,5.9-2.1,9.055,9.055,0,0,0,2.1-2.3c1.1-1.5,1.6-3.7,1.6-6.5V1.6h6.4v9.3a19.708,19.708,0,0,1-.7,6,14.638,14.638,0,0,1-1.7,3.8,15.165,15.165,0,0,1-3.4,3.9,18.167,18.167,0,0,1-7.1,3.5v5.2h-6.2Z" fill="#6f7176"/>
    <path id="Path_2934" data-name="Path 2934" d="M238,1.6V7.8H223.1c-2.9,0-5.2.6-6.7,1.9a6.66,6.66,0,0,0-2.3,2.4,10.69,10.69,0,0,0-1.7,5.5,10.119,10.119,0,0,0,2,5.7,10.338,10.338,0,0,0,5.1,3.5,12.212,12.212,0,0,0,3.7.4H238v6.1l-.7.1H223.7c-3.7,0-6.4-.5-8.2-1.4a15.675,15.675,0,0,1-8.3-8.3,15.136,15.136,0,0,1-1.3-6.3,15.434,15.434,0,0,1,3.6-10.1,22.21,22.21,0,0,1,3.8-3.4,14.883,14.883,0,0,1,5.9-2.2,45.072,45.072,0,0,1,7.4-.3H238Z" fill="#1b1d1d"/>
    <path id="Path_2935" data-name="Path 2935" d="M240.9,1.6h6.4V16.7c0,4.2,1.6,7.3,4.8,9.2a10.31,10.31,0,0,0,5.6,1.4H273v6.2H258c-4,0-7.3-.8-9.7-2.5a14.905,14.905,0,0,1-3.1-2.5,17.417,17.417,0,0,1-3.6-6,21.52,21.52,0,0,1-.8-6.5V1.6Z" fill="#1b1d1d"/>
    <path id="Path_2936" data-name="Path 2936" d="M275.9,1.6h6.4V33.5h-6.4Z" fill="#1b1d1d"/>
    <g id="Group_2327" data-name="Group 2327">
      <path id="Path_2937" data-name="Path 2937" d="M301.3,1.6a15.9,15.9,0,0,1,11.4,4.8,16.078,16.078,0,0,1,3.3,4.9,14.588,14.588,0,0,1,1.2,5.7v1.1a15.337,15.337,0,0,1-2.6,7.8l-4.5-4.5a21.732,21.732,0,0,0,.7-4.1,9.652,9.652,0,0,0-9.7-9.5,9.972,9.972,0,0,0-6.5,2.6,9.856,9.856,0,0,0-3.1,7.2,10.023,10.023,0,0,0,2.6,6.6,9.59,9.59,0,0,0,7,3.1,14.578,14.578,0,0,0,3.9-.7l4.6,4.4a15.442,15.442,0,0,1-7.9,2.5h-.8a15.859,15.859,0,0,1-15.7-15.9,16.018,16.018,0,0,1,16.1-16Z" fill="#1b1d1d"/>
      <path id="Path_2938" data-name="Path 2938" d="M307.9,20.4h.7l8.6,8.7v.4l-3.8,3.9h-.7L304,24.7v-.4Z" fill="#ef3b13"/>
    </g>
  </g>
</svg>
